<svg xmlns="http://www.w3.org/2000/svg" width="108" height="59" fill="none" xmlns:v="https://vecta.io/nano"><path d="M28.587 32.852c.91.598 1.417 1.196 1.521 1.794.13.598-.143 1.365-.819 2.301-.468.676-.897 1.131-1.287 1.365a1.5 1.5 0 0 1-1.248.156c-.442-.13-.962-.39-1.56-.78l-2.886-1.872a13.52 13.52 0 0 1-3.705 2.145c-1.352.52-2.782.78-4.29.78-1.872 0-3.64-.351-5.304-1.053a14.25 14.25 0 0 1-4.329-2.964c-1.222-1.274-2.197-2.743-2.925-4.407a13.79 13.79 0 0 1-1.053-5.343c0-1.976.338-3.809 1.014-5.499.702-1.716 1.651-3.224 2.847-4.524a13.29 13.29 0 0 1 4.251-3.042c1.612-.728 3.341-1.092 5.187-1.092 1.872 0 3.627.364 5.265 1.092 1.664.702 3.107 1.69 4.329 2.964 1.248 1.274 2.223 2.756 2.925 4.446s1.053 3.523 1.053 5.499c0 1.118-.143 2.21-.429 3.276-.26 1.066-.637 2.08-1.131 3.042l2.574 1.716zm-14.469-.039a6.95 6.95 0 0 0 2.925-.624 7.73 7.73 0 0 0 2.379-1.677c.702-.728 1.235-1.586 1.599-2.574.39-.988.585-2.041.585-3.159 0-1.092-.195-2.119-.585-3.081-.39-.988-.936-1.846-1.638-2.574-.676-.754-1.469-1.339-2.379-1.755-.884-.416-1.833-.624-2.847-.624a6.95 6.95 0 0 0-2.925.624c-.91.416-1.716 1.001-2.418 1.755a8.12 8.12 0 0 0-1.599 2.574c-.39.962-.585 2.002-.585 3.12a8.42 8.42 0 0 0 .585 3.12c.416.962.962 1.807 1.638 2.535.702.728 1.495 1.3 2.379 1.716a6.86 6.86 0 0 0 2.886.624zm30.565 5.85c-1.144 0-2.353-.182-3.627-.546s-2.522-.91-3.744-1.638-2.34-1.651-3.354-2.769c-.988-1.144-1.781-2.47-2.379-3.978-.572-1.534-.858-3.276-.858-5.226 0-1.872.286-3.536.858-4.992.598-1.482 1.391-2.769 2.379-3.861s2.093-1.989 3.315-2.691c1.222-.728 2.483-1.261 3.783-1.599 1.3-.364 2.535-.546 3.705-.546 1.326 0 2.483.156 3.471.468s1.794.637 2.418.975c.624.312 1.014.533 1.17.663a9.66 9.66 0 0 1 1.326.975c.416.364.637.845.663 1.443 0 .312-.065.624-.195.936-.104.286-.273.598-.507.936-.416.598-.819 1.04-1.209 1.326-.364.26-.741.39-1.131.39-.312 0-.611-.078-.897-.234l-1.014-.624c-.182-.13-.442-.286-.78-.468-.338-.208-.793-.39-1.365-.546-.572-.182-1.3-.273-2.184-.273-.91 0-1.833.169-2.769.507-.91.312-1.755.793-2.535 1.443s-1.404 1.482-1.872 2.496c-.468.988-.702 2.145-.702 3.471 0 1.378.234 2.561.702 3.549.494.988 1.131 1.807 1.911 2.457s1.625 1.144 2.535 1.482c.936.312 1.846.468 2.73.468.78 0 1.443-.078 1.989-.234.572-.156 1.053-.338 1.443-.546l1.053-.624.858-.507c.312-.156.624-.234.936-.234.364 0 .728.143 1.092.429.39.286.78.741 1.17 1.365a4.84 4.84 0 0 1 .546 1.014 1.98 1.98 0 0 1 .156.936c0 .546-.208 1.001-.624 1.365a12.13 12.13 0 0 1-1.326.936c-.208.104-.611.338-1.209.702-.598.338-1.391.65-2.379.936-.988.312-2.171.468-3.549.468zm14.648-.312c-.936 0-1.612-.143-2.028-.429a1.85 1.85 0 0 1-.741-1.092c-.104-.468-.156-.962-.156-1.482V14.015c0-.494.052-.949.156-1.365.104-.442.364-.806.78-1.092s1.105-.429 2.067-.429c.65 0 1.144.039 1.482.117s.585.195.741.351a7.69 7.69 0 0 1 .507.468l8.775 11.856h-.585l8.814-11.856c.208-.26.416-.455.624-.585s.468-.221.78-.273c.338-.052.806-.078 1.404-.078.936 0 1.612.143 2.028.429s.676.663.78 1.131c.104.442.156.91.156 1.404v21.333c0 .494-.052.962-.156 1.404s-.364.806-.78 1.092-1.105.429-2.067.429c-.936 0-1.612-.143-2.028-.429s-.676-.663-.78-1.131a6.63 6.63 0 0 1-.156-1.443V21.425l-5.811 8.229-.429.546c-.182.208-.442.39-.78.546-.312.156-.741.234-1.287.234-.572 0-1.027-.078-1.365-.234-.312-.156-.559-.338-.741-.546l-.468-.546-5.772-8.19v13.962c0 .494-.052.962-.156 1.404s-.364.806-.78 1.092c-.39.286-1.066.429-2.028.429z" fill="#db3f3f"/><path d="M83.24 54.16c-.387 0-.673-.073-.86-.22a.72.72 0 0 1-.28-.6l.14-.66c-.107.173-.287.38-.54.62-.253.227-.587.433-1 .62-.413.173-.913.26-1.5.26a4.27 4.27 0 0 1-1.78-.38c-.547-.267-1.033-.627-1.46-1.08-.413-.467-.747-.993-1-1.58a5.12 5.12 0 0 1-.36-1.92c0-.653.12-1.267.36-1.84a5.35 5.35 0 0 1 1.02-1.56c.427-.453.913-.807 1.46-1.06.56-.267 1.147-.4 1.76-.4.547 0 1.007.073 1.38.22a3.31 3.31 0 0 1 .98.56c.267.213.487.44.66.68l-.12-.58c0-.293.093-.513.28-.66.187-.16.48-.24.88-.24.373 0 .64.06.8.18a.69.69 0 0 1 .3.46c.04.187.06.4.06.64v7.32c0 .227-.02.433-.06.62s-.147.333-.32.44c-.16.107-.427.16-.8.16zm-3.68-2.32a2.24 2.24 0 0 0 1.22-.34c.36-.227.647-.533.86-.92a2.63 2.63 0 0 0 .34-1.32c0-.52-.113-.973-.34-1.36a2.43 2.43 0 0 0-.9-.9 2.24 2.24 0 0 0-1.22-.34c-.493 0-.933.12-1.32.36a2.49 2.49 0 0 0-.92.94c-.213.387-.32.827-.32 1.32 0 .48.113.913.34 1.3s.533.693.92.92a2.67 2.67 0 0 0 1.34.34zm11.927 2.22c-.653 0-1.24-.12-1.76-.36-.507-.253-.94-.6-1.3-1.04a5.08 5.08 0 0 1-.8-1.56 6.68 6.68 0 0 1-.26-1.9c.013-.68.113-1.313.3-1.9.187-.6.453-1.12.8-1.56.36-.44.793-.787 1.3-1.04s1.08-.38 1.72-.38c.613 0 1.187.127 1.72.38.547.253 1.027.607 1.44 1.06.427.453.76.98 1 1.58a4.97 4.97 0 0 1 .36 1.9c0 .693-.12 1.333-.36 1.92s-.567 1.1-.98 1.54a4.51 4.51 0 0 1-1.44 1 4.28 4.28 0 0 1-1.74.36zm-4 4.16c-.36 0-.627-.053-.8-.16a.66.66 0 0 1-.32-.42c-.04-.173-.06-.373-.06-.6v-11.5c0-.227.02-.427.06-.6s.14-.313.3-.42c.173-.12.44-.18.8-.18.347 0 .62.053.82.16s.333.287.4.54v11.98c.013.227-.007.427-.06.6-.04.187-.147.333-.32.44s-.447.16-.82.16zm3.68-6.4c.467 0 .887-.107 1.26-.32a2.43 2.43 0 0 0 .88-.92 2.67 2.67 0 0 0 .34-1.34c0-.507-.113-.953-.34-1.34-.213-.387-.507-.687-.88-.9a2.38 2.38 0 0 0-1.26-.34c-.453 0-.867.113-1.24.34a2.59 2.59 0 0 0-.9.92c-.213.373-.32.813-.32 1.32 0 .493.107.94.32 1.34a2.59 2.59 0 0 0 .9.92c.373.213.787.32 1.24.32zm11.589 2.24c-.653 0-1.24-.12-1.76-.36a3.94 3.94 0 0 1-1.3-1.04c-.347-.453-.613-.973-.8-1.56-.173-.587-.26-1.22-.26-1.9.013-.68.113-1.313.3-1.9.187-.6.453-1.12.8-1.56a3.94 3.94 0 0 1 1.3-1.04c.507-.253 1.08-.38 1.72-.38.614 0 1.187.127 1.72.38.547.253 1.027.607 1.44 1.06.427.453.76.98 1 1.58a4.97 4.97 0 0 1 .36 1.9c0 .693-.12 1.333-.36 1.92s-.566 1.1-.98 1.54a4.5 4.5 0 0 1-1.44 1c-.546.24-1.126.36-1.74.36zm-4 4.16c-.36 0-.627-.053-.8-.16a.66.66 0 0 1-.32-.42c-.04-.173-.06-.373-.06-.6v-11.5c0-.227.02-.427.06-.6s.14-.313.3-.42c.173-.12.44-.18.8-.18.347 0 .62.053.82.16s.333.287.4.54v11.98a1.7 1.7 0 0 1-.06.6c-.04.187-.147.333-.32.44s-.447.16-.82.16zm3.68-6.4c.467 0 .887-.107 1.26-.32.374-.227.667-.533.88-.92.227-.4.34-.847.34-1.34 0-.507-.113-.953-.34-1.34a2.28 2.28 0 0 0-.88-.9c-.373-.227-.793-.34-1.26-.34-.453 0-.866.113-1.24.34s-.673.533-.9.92c-.213.373-.32.813-.32 1.32 0 .493.107.94.32 1.34.227.387.527.693.9.92.374.213.787.32 1.24.32z" fill="#000"/></svg>